Coordinates
version=1
nRows=13
nColumns=40
inDegrees=yes

Units are S.I. units (second, meters, Newtons, ...)
If the header above contains a line with 'inDegrees', this indicates whether rotational values are in degrees (yes) or radians (no).

endheader
time	pelvis_tilt	pelvis_list	pelvis_rotation	pelvis_tx	pelvis_ty	pelvis_tz	hip_flexion_r	hip_adduction_r	hip_rotation_r	knee_angle_r	knee_angle_r_beta	ankle_angle_r	subtalar_angle_r	mtp_angle_r	hip_flexion_l	hip_adduction_l	hip_rotation_l	knee_angle_l	knee_angle_l_beta	ankle_angle_l	subtalar_angle_l	mtp_angle_l	lumbar_extension	lumbar_bending	lumbar_rotation	arm_flex_r	arm_add_r	arm_rot_r	elbow_flex_r	pro_sup_r	wrist_flex_r	wrist_dev_r	arm_flex_l	arm_add_l	arm_rot_l	elbow_flex_l	pro_sup_l	wrist_flex_l	wrist_dev_l
      4.19000000	    -40.47519032	      7.92508200	      8.57975226	     -0.40687150	      0.71834188	     -0.91181527	    101.95617235	    -23.06890736	      8.58962159	     88.35863455	      1.54214910	     31.44168934	      0.00000000	      0.00000000	     95.85071655	      0.01638523	     -4.63688602	     83.86704343	      1.46375604	     31.62703914	      0.00000000	      0.00000000	    -38.16317328	      0.90371873	    -16.54241899	     -4.52852218	    -63.56265191	     61.77352159	    111.49897651	     87.96081481	      0.00000000	      0.00000000	     -6.17400971	    -64.72047586	     61.34641220	    105.01883550	     88.12287252	      0.00000000	      0.00000000
      4.19500000	    -40.47344627	      7.90800157	      8.65485244	     -0.40681637	      0.71843171	     -0.91201096	    101.94369036	    -23.18530880	      8.54651870	     88.34382162	      1.54189056	     31.49738171	      0.00000000	      0.00000000	     95.82961322	      0.10785057	     -4.62076650	     83.83743426	      1.46323926	     31.65583493	      0.00000000	      0.00000000	    -38.31089825	      1.01433190	    -16.56966482	     -4.77419502	    -63.59479370	     61.53148974	    111.50955350	     87.95128913	      0.00000000	      0.00000000	     -6.36850029	    -64.65117646	     61.09442141	    104.94506909	     88.15816943	      0.00000000	      0.00000000
      4.20000000	    -43.71182211	      8.34124458	      4.41032294	     -0.41599998	      0.71175961	     -0.90177535	    105.31276707	    -16.87512737	      9.01774909	     87.08135044	      1.51985628	     30.16567253	      0.00000000	      0.00000000	     99.62572419	     -5.28257704	     -4.77944406	     84.21979091	      1.46991265	     31.08284515	      0.00000000	      0.00000000	    -34.85935934	     -2.91701139	    -13.22556414	     -4.98076843	    -63.49051577	     61.95123156	    112.01027162	     87.96777585	      0.00000000	      0.00000000	     -7.09129322	    -65.83752193	     60.94340713	    105.99176941	     88.12903122	      0.00000000	      0.00000000
      4.20500000	    -43.98623195	      8.23454517	      4.47181478	     -0.41669959	      0.71152758	     -0.90186793	    105.57640302	    -16.88935773	      8.93361520	     87.00127212	      1.51845865	     30.08919721	      0.00000000	      0.00000000	     99.93828114	     -5.23802115	     -4.66173050	     84.13999979	      1.46852003	     31.02470367	      0.00000000	      0.00000000	    -34.67146853	     -2.81158232	    -13.18332595	     -4.83862610	    -63.55810080	     62.15311682	    112.01733556	     87.99858353	      0.00000000	      0.00000000	     -7.12012272	    -65.80510621	     60.93298779	    105.97335241	     88.10370169	      0.00000000	      0.00000000
      4.21000000	    -43.94709951	      8.24505169	      4.62044797	     -0.41630794	      0.71197597	     -0.90233669	    105.50083974	    -17.12646929	      8.91013728	     86.97471720	      1.51799518	     30.19612710	      0.00000000	      0.00000000	     99.82421104	     -5.01770528	     -4.67437307	     84.04660994	      1.46689007	     31.13257756	      0.00000000	      0.00000000	    -34.87880913	     -2.67299946	    -13.27977575	     -5.12681574	    -63.56952534	     61.81992293	    111.96236784	     87.94809034	      0.00000000	      0.00000000	     -7.33805852	    -65.64876882	     60.57434232	    105.84048553	     88.11981855	      0.00000000	      0.00000000
      4.21500000	    -44.07290352	      8.25946175	      4.46415026	     -0.41660137	      0.71210167	     -0.90179069	    105.57395937	    -16.91661150	      8.85479418	     86.86565231	      1.51609164	     30.22322129	      0.00000000	      0.00000000	     99.89304352	     -5.21886657	     -4.66257595	     83.96274335	      1.46542632	     31.20501745	      0.00000000	      0.00000000	    -34.87299061	     -2.81564173	    -13.11435429	     -5.23605813	    -63.50510216	     61.68733642	    111.85308194	     87.91383469	      0.00000000	      0.00000000	     -7.48070944	    -65.63573421	     60.34552367	    105.74315436	     88.15732146	      0.00000000	      0.00000000
      4.22000000	    -41.37471915	      7.90015487	      8.12161001	     -0.40907065	      0.71830234	     -0.91069045	    102.76031356	    -22.31330109	      8.53139053	     87.84011552	      1.53309923	     31.12053865	      0.00000000	      0.00000000	     96.67470702	     -0.58121900	     -4.64572150	     83.50839590	      1.45749646	     31.42780200	      0.00000000	      0.00000000	    -37.86762243	      0.53133940	    -15.96543712	     -3.41456106	    -63.79555148	     63.21205841	    111.50102634	     87.97037545	      0.00000000	      0.00000000	     -5.56748562	    -64.68911785	     62.07207449	    104.93595546	     88.13350269	      0.00000000	      0.00000000
      4.22500000	    -44.18875667	      8.14403155	      5.04428142	     -0.41682718	      0.71269872	     -0.90323948	    105.68383890	    -17.63975429	      8.81605058	     86.81219667	      1.51515866	     30.14524248	      0.00000000	      0.00000000	     99.96177083	     -4.52969377	     -4.64848339	     83.70844951	      1.46098806	     30.91012929	      0.00000000	      0.00000000	    -34.79936565	     -2.33874758	    -13.45688748	     -3.74260272	    -63.79097442	     63.50115750	    111.88124576	     87.96546989	      0.00000000	      0.00000000	     -6.25514508	    -65.54391841	     61.85733269	    105.60949739	     88.12854891	      0.00000000	      0.00000000
      4.23000000	    -41.53561827	      7.86406368	      8.52621524	     -0.40923304	      0.71896971	     -0.91170229	    102.89758647	    -22.84023166	      8.47894034	     87.73491807	      1.53126319	     31.09416364	      0.00000000	      0.00000000	     96.74279090	     -0.07613225	     -4.61133145	     83.25865462	      1.45313765	     31.40353388	      0.00000000	      0.00000000	    -37.85743356	      0.84098354	    -16.18293651	     -3.14882189	    -63.89499733	     63.60187844	    111.44819685	     87.97027700	      0.00000000	      0.00000000	     -5.40254996	    -64.56009592	     62.19430694	    104.78607880	     88.12962780	      0.00000000	      0.00000000
      4.23500000	    -41.31179787	      7.84660089	      8.54539717	     -0.40848270	      0.72001963	     -0.91161133	    102.53943362	    -22.95454950	      8.34561469	     87.68977036	      1.53047521	     31.12103561	      0.00000000	      0.00000000	     96.40768564	     -0.04081865	     -4.60791878	     83.18482202	      1.45184903	     31.42691690	      0.00000000	      0.00000000	    -38.16671156	      0.92291420	    -16.20333340	     -2.43949653	    -63.88465574	     64.28935978	    111.32373534	     87.96397641	      0.00000000	      0.00000000	     -5.00268709	    -64.52130995	     62.63610598	    104.66580493	     88.11739276	      0.00000000	      0.00000000
      4.24000000	    -43.86426201	      8.28135566	      4.97058203	     -0.41559311	      0.71524285	     -0.90291723	    105.11043543	    -17.71704321	      8.70537272	     86.56127730	      1.51077929	     30.10424410	      0.00000000	      0.00000000	     99.30809770	     -4.52026942	     -4.76265548	     83.44161231	      1.45633087	     30.97921099	      0.00000000	      0.00000000	    -35.46705490	     -2.44136324	    -13.49023715	     -2.61416715	    -63.72107369	     64.58665443	    111.61862022	     87.96185046	      0.00000000	      0.00000000	     -5.66167393	    -65.47853108	     62.37834130	    105.40990194	     88.12373212	      0.00000000	      0.00000000
      4.24500000	    -41.63010671	      8.10508663	      8.51249137	     -0.40868659	      0.72105547	     -0.91138778	    102.85704969	    -22.82972887	      8.62100281	     87.45050514	      1.52629925	     30.63500707	      0.00000000	      0.00000000	     96.48614162	     -0.10049755	     -4.90772320	     82.82680529	      1.44560046	     31.12183085	      0.00000000	      0.00000000	    -38.03438712	      0.60029765	    -16.31876945	     -2.28274962	    -63.70139286	     64.38803324	    111.05563862	     87.94871367	      0.00000000	      0.00000000	     -5.01451263	    -64.48541145	     62.57373580	    104.49769160	     88.12743377	      0.00000000	      0.00000000
      4.25000000	    -44.17470741	      8.31596313	      4.80114181	     -0.41620308	      0.71604165	     -0.90231395	    105.28357752	    -17.43826811	      8.67798804	     86.24325590	      1.50522877	     29.93702843	      0.00000000	      0.00000000	     99.49530665	     -4.71958076	     -4.74446960	     83.16310321	      1.45146997	     30.83969045	      0.00000000	      0.00000000	    -35.23038540	     -2.65216361	    -13.32506420	     -2.26410009	    -63.72951317	     64.98352639	    111.58382735	     87.97265903	      0.00000000	      0.00000000	     -5.48720921	    -65.52489822	     62.53518005	    105.49785512	     88.13321029	      0.00000000	      0.00000000
